<svg width="70" height="80" viewBox="0 0 70 80" fill="none" xmlns="http://www.w3.org/2000/svg">
<path fill-rule="evenodd" clip-rule="evenodd" d="M16.3334 0H53.6667V5.33333H69.6667V72C69.6667 74.1217 68.8238 76.1566 67.3236 77.6569C65.8233 79.1571 63.7884 80 61.6667 80H8.33337C6.21164 80 4.17681 79.1571 2.67652 77.6569C1.17623 76.1566 0.333374 74.1217 0.333374 72V5.33333H16.3334V0ZM21.6667 5.33333H48.3334V13.3333C48.3334 14.0406 48.0524 14.7189 47.5523 15.219C47.0522 15.719 46.3739 16 45.6667 16H24.3334C23.6261 16 22.9479 15.719 22.4478 15.219C21.9477 14.7189 21.6667 14.0406 21.6667 13.3333V5.33333ZM32.4614 59.904L53.0054 36.4213L48.9947 32.912L32.2054 52.1013L23.5547 43.4453L19.7787 47.2213L32.4614 59.904Z" fill="#D9D9D9"/>
</svg>
